<svg width="80" height="80" viewBox="0 0 80 80" fill="none" xmlns="http://www.w3.org/2000/svg">
<rect width="80" height="80" rx="8" fill="#5A4B2C"/>
<path d="M24.0264 40.17C25.2064 40.39 26.2064 40.99 27.0264 41.97C27.8464 42.95 28.2564 44.09 28.2564 45.39C28.2564 46.45 27.9864 47.41 27.4464 48.27C26.9264 49.11 26.1564 49.78 25.1364 50.28C24.1164 50.76 22.8964 51 21.4764 51H14.2164V30.03H21.2664C23.3864 30.03 24.9964 30.52 26.0964 31.5C27.2164 32.48 27.7764 33.75 27.7764 35.31C27.7764 36.61 27.4264 37.67 26.7264 38.49C26.0264 39.29 25.1264 39.85 24.0264 40.17ZM16.3164 39.3H21.2064C22.6264 39.3 23.7164 38.97 24.4764 38.31C25.2564 37.63 25.6464 36.7 25.6464 35.52C25.6464 34.36 25.2564 33.45 24.4764 32.79C23.7164 32.13 22.5964 31.8 21.1164 31.8H16.3164V39.3ZM21.3264 49.23C22.8464 49.23 24.0264 48.87 24.8664 48.15C25.7264 47.43 26.1564 46.44 26.1564 45.18C26.1564 43.92 25.7064 42.92 24.8064 42.18C23.9264 41.42 22.7364 41.04 21.2364 41.04H16.3164V49.23H21.3264ZM47.9268 51H45.8268L34.2168 33.36V51H32.1168V30.03H34.2168L45.8268 47.64V30.03H47.9268V51ZM62.4932 40.17C63.6732 40.39 64.6732 40.99 65.4932 41.97C66.3132 42.95 66.7232 44.09 66.7232 45.39C66.7232 46.45 66.4532 47.41 65.9132 48.27C65.3932 49.11 64.6232 49.78 63.6032 50.28C62.5832 50.76 61.3632 51 59.9432 51H52.6832V30.03H59.7332C61.8532 30.03 63.4632 30.52 64.5632 31.5C65.6832 32.48 66.2432 33.75 66.2432 35.31C66.2432 36.61 65.8932 37.67 65.1932 38.49C64.4932 39.29 63.5932 39.85 62.4932 40.17ZM54.7832 39.3H59.6732C61.0932 39.3 62.1832 38.97 62.9432 38.31C63.7232 37.63 64.1132 36.7 64.1132 35.52C64.1132 34.36 63.7232 33.45 62.9432 32.79C62.1832 32.13 61.0632 31.8 59.5832 31.8H54.7832V39.3ZM59.7932 49.23C61.3132 49.23 62.4932 48.87 63.3332 48.15C64.1932 47.43 64.6232 46.44 64.6232 45.18C64.6232 43.92 64.1732 42.92 63.2732 42.18C62.3932 41.42 61.2032 41.04 59.7032 41.04H54.7832V49.23H59.7932Z" fill="white"/>
</svg>
