<svg width="80" height="80" viewBox="0 0 80 80" fill="none" xmlns="http://www.w3.org/2000/svg">
<rect width="80" height="80" rx="8" fill="#142E67"/>
<path d="M35.696 55L28.136 42.442H27.968H21.668V55H19.778V25.516H27.884C31.16 25.516 33.61 26.286 35.234 27.826C36.886 29.366 37.712 31.41 37.712 33.958C37.712 36.226 37.068 38.102 35.78 39.586C34.52 41.042 32.672 41.938 30.236 42.274L37.964 55H35.696ZM21.668 40.846H27.968C30.572 40.846 32.518 40.216 33.806 38.956C35.094 37.696 35.738 36.03 35.738 33.958C35.738 29.45 33.12 27.196 27.884 27.196H21.668V40.846ZM60.625 47.566C60.625 48.854 60.317 50.086 59.701 51.262C59.113 52.438 58.175 53.404 56.887 54.16C55.627 54.916 54.059 55.294 52.183 55.294V58.654H50.839V55.252C48.431 55.028 46.471 54.216 44.959 52.816C43.447 51.388 42.621 49.694 42.481 47.734H44.455C44.623 49.078 45.239 50.338 46.303 51.514C47.395 52.69 48.907 53.39 50.839 53.614V40.678C48.991 40.146 47.507 39.628 46.387 39.124C45.267 38.62 44.315 37.85 43.531 36.814C42.775 35.778 42.397 34.392 42.397 32.656C42.397 31.256 42.719 29.996 43.363 28.876C44.035 27.756 45.001 26.874 46.261 26.23C47.549 25.558 49.075 25.222 50.839 25.222V21.568H52.183V25.264C54.423 25.488 56.215 26.23 57.559 27.49C58.903 28.75 59.729 30.248 60.037 31.984H58.063C57.811 30.836 57.195 29.758 56.215 28.75C55.235 27.742 53.891 27.126 52.183 26.902V39.292C53.975 39.796 55.445 40.314 56.593 40.846C57.741 41.378 58.693 42.19 59.449 43.282C60.233 44.346 60.625 45.774 60.625 47.566ZM44.329 32.572C44.329 33.86 44.609 34.91 45.169 35.722C45.757 36.534 46.499 37.178 47.395 37.654C48.319 38.102 49.467 38.522 50.839 38.914V26.818C48.851 26.846 47.269 27.364 46.093 28.372C44.917 29.352 44.329 30.752 44.329 32.572ZM52.183 53.698C54.283 53.67 55.893 53.082 57.013 51.934C58.161 50.786 58.735 49.358 58.735 47.65C58.735 45.746 58.161 44.332 57.013 43.408C55.893 42.484 54.283 41.714 52.183 41.098V53.698Z" fill="white"/>
</svg>
