<svg width="80" height="80" viewBox="0 0 80 80" fill="none" xmlns="http://www.w3.org/2000/svg">
<rect width="80" height="80" rx="8" fill="#255863"/>
<path d="M36.9553 39.838C38.6073 40.146 40.0073 40.986 41.1553 42.358C42.3033 43.73 42.8773 45.326 42.8773 47.146C42.8773 48.63 42.4993 49.974 41.7433 51.178C41.0153 52.354 39.9373 53.292 38.5093 53.992C37.0813 54.664 35.3733 55 33.3853 55H23.2213V25.642H33.0913C36.0593 25.642 38.3133 26.328 39.8533 27.7C41.4213 29.072 42.2053 30.85 42.2053 33.034C42.2053 34.854 41.7153 36.338 40.7353 37.486C39.7553 38.606 38.4953 39.39 36.9553 39.838ZM26.1613 38.62H33.0073C34.9953 38.62 36.5213 38.158 37.5853 37.234C38.6773 36.282 39.2233 34.98 39.2233 33.328C39.2233 31.704 38.6773 30.43 37.5853 29.506C36.5213 28.582 34.9533 28.12 32.8813 28.12H26.1613V38.62ZM33.1753 52.522C35.3033 52.522 36.9553 52.018 38.1313 51.01C39.3353 50.002 39.9373 48.616 39.9373 46.852C39.9373 45.088 39.3073 43.688 38.0473 42.652C36.8153 41.588 35.1493 41.056 33.0493 41.056H26.1613V52.522H33.1753ZM51.2219 36.142C51.8659 34.714 52.8459 33.608 54.1619 32.824C55.5059 32.04 57.1439 31.648 59.0759 31.648V34.714H58.2779C56.1499 34.714 54.4419 35.288 53.1539 36.436C51.8659 37.584 51.2219 39.502 51.2219 42.19V55H48.2819V32.068H51.2219V36.142Z" fill="white"/>
</svg>
