<svg width="80" height="80" viewBox="0 0 80 80" fill="none" xmlns="http://www.w3.org/2000/svg">
<rect width="80" height="80" rx="8" fill="#142E67"/>
<path d="M35.4791 42.484V47.02H45.3071V49.414H35.4791V55H32.5391V49.414H28.9691V47.02H32.5391V42.484H28.9691V40.048H32.5391V25.642H41.4011C44.6771 25.642 47.1411 26.412 48.7931 27.952C50.4731 29.492 51.3131 31.536 51.3131 34.084C51.3131 36.604 50.4871 38.634 48.8351 40.174C47.1831 41.714 44.7051 42.484 41.4011 42.484H35.4791ZM35.4791 40.048H41.4011C43.7811 40.048 45.5311 39.53 46.6511 38.494C47.7711 37.458 48.3311 35.988 48.3311 34.084C48.3311 30.024 46.0211 27.994 41.4011 27.994H35.4791V40.048Z" fill="white"/>
</svg>
